<?xml version="1.0" standalone="no"?>
<!DOCTYPE svg PUBLIC "-//W3C//DTD SVG 20010904//EN"
 "http://www.w3.org/TR/2001/REC-SVG-20010904/DTD/svg10.dtd">
<svg version="1.0" xmlns="http://www.w3.org/2000/svg"
 width="404.000000pt" height="680.000000pt" viewBox="0 0 404.000000 680.000000"
 preserveAspectRatio="xMidYMid meet">

<g transform="translate(0.000000,680.000000) scale(0.100000,-0.100000)"
fill="#000000" stroke="none">
<path d="M284 6790 c-198 -42 -321 -257 -270 -473 20 -86 37 -118 92 -177 67
-71 146 -104 254 -104 70 0 95 4 141 26 93 43 159 129 175 227 l7 41 -81 0
-80 0 -6 -35 c-9 -47 -59 -102 -106 -116 -65 -20 -125 -4 -174 45 -54 53 -70
109 -64 214 7 122 62 201 154 218 75 14 156 -28 184 -96 12 -29 14 -30 86 -30
40 0 75 3 78 8 9 14 -31 113 -61 150 -43 53 -142 101 -223 106 -36 3 -84 1
-106 -4z"/>
<path d="M2100 6720 l0 -60 75 0 75 0 0 60 0 60 -75 0 -75 0 0 -60z"/>
<path d="M2496 6770 c-61 -19 -106 -87 -106 -162 0 -26 -3 -28 -40 -28 l-40 0
0 -50 0 -50 40 0 40 0 0 -215 0 -215 75 0 75 0 0 215 0 215 50 0 50 0 0 50 0
50 -50 0 c-49 0 -50 1 -50 29 0 42 25 63 69 59 l36 -3 0 55 0 55 -60 2 c-33 1
-73 -2 -89 -7z"/>
<path d="M2730 6720 l0 -60 75 0 75 0 0 60 0 60 -75 0 -75 0 0 -60z"/>
<path d="M3880 6653 c0 -119 -1 -125 -17 -111 -36 32 -83 48 -137 48 -72 0
-102 -12 -153 -62 -55 -54 -78 -119 -77 -218 2 -163 94 -270 234 -270 61 0
132 27 149 57 9 15 10 13 11 -14 l0 -33 70 0 70 0 0 365 0 365 -75 0 -75 0 0
-127z m-40 -201 c91 -92 47 -302 -64 -302 -19 0 -47 5 -61 12 -83 38 -99 216
-25 290 23 23 37 28 75 28 38 0 52 -5 75 -28z"/>
<path d="M1770 6661 l0 -80 -42 -3 -43 -3 -3 -47 -3 -48 45 0 45 0 3 -185 c3
-182 3 -185 28 -210 30 -30 117 -48 186 -38 l44 6 0 53 0 54 -36 0 c-73 0 -74
3 -74 170 l0 150 56 0 55 0 -3 48 -3 47 -52 3 -53 3 0 80 0 79 -75 0 -75 0 0
-79z"/>
<path d="M879 6576 c-60 -21 -107 -64 -139 -129 -25 -49 -30 -72 -30 -128 0
-171 100 -278 260 -279 87 0 134 15 180 56 35 32 70 88 70 113 0 7 -23 11 -59
11 -46 0 -63 -4 -73 -18 -25 -35 -62 -52 -111 -52 -42 0 -54 5 -83 34 -24 24
-34 43 -34 65 l0 31 190 0 c150 0 190 3 190 13 0 36 -24 135 -40 167 -24 46
-76 95 -122 114 -45 19 -149 20 -199 2z m152 -106 c21 -12 49 -60 49 -85 0
-13 -17 -15 -110 -15 -98 0 -110 2 -110 18 1 27 25 63 51 78 29 16 93 18 120
4z"/>
<path d="M1522 6573 c-18 -8 -44 -29 -57 -45 l-25 -30 0 41 0 41 -70 0 -70 0
0 -265 0 -265 69 0 69 0 4 153 c6 209 28 248 142 248 l56 0 0 70 0 69 -42 0
c-24 0 -58 -8 -76 -17z"/>
<path d="M3106 6580 c-72 -22 -141 -94 -166 -174 -18 -56 -8 -181 17 -231 60
-115 208 -166 346 -119 62 21 137 105 137 155 0 5 -25 9 -56 9 -51 0 -61 -4
-95 -35 -33 -29 -47 -35 -85 -35 -77 0 -124 40 -124 105 l0 25 184 0 c102 0
187 4 190 9 9 14 -14 132 -34 170 -24 47 -76 96 -122 115 -40 17 -144 20 -192
6z m145 -110 c21 -12 49 -60 49 -85 0 -13 -17 -15 -110 -15 -107 0 -110 1
-110 23 0 25 25 59 55 75 25 14 90 15 116 2z"/>
<path d="M2107 6573 c-4 -3 -7 -123 -7 -265 l0 -258 75 0 75 0 0 265 0 265
-68 0 c-38 0 -72 -3 -75 -7z"/>
<path d="M2737 6573 c-4 -3 -7 -123 -7 -265 l0 -258 75 0 75 0 0 265 0 265
-68 0 c-38 0 -72 -3 -75 -7z"/>
<path d="M1760 5685 c-766 -105 -1403 -630 -1645 -1358 -141 -423 -141 -851 1
-1276 228 -685 794 -1185 1514 -1336 170 -36 485 -46 664 -21 818 115 1480
707 1680 1505 61 238 77 547 42 776 -68 436 -249 802 -551 1114 -327 338 -753
547 -1220 601 -121 13 -368 11 -485 -5z m493 -270 c287 -38 553 -144 797 -318
112 -80 308 -278 393 -397 81 -115 196 -341 237 -468 241 -748 -40 -1561 -689
-1993 -446 -297 -1007 -374 -1513 -208 -129 42 -356 156 -463 234 -489 352
-757 900 -732 1499 36 850 678 1546 1527 1655 108 14 322 12 443 -4z"/>
<path d="M1180 3690 l0 -1151 633 4 c704 3 675 1 827 75 111 54 224 169 278
282 69 144 88 298 56 443 -44 196 -162 328 -349 391 l-67 22 67 39 c171 100
265 269 265 475 0 281 -175 493 -450 546 -71 14 -183 17 -672 21 l-588 5 0
-1152z m1057 880 c50 -5 118 -19 150 -31 78 -29 152 -103 176 -178 21 -67 23
-209 2 -278 -19 -64 -88 -143 -152 -174 -99 -48 -135 -52 -540 -56 l-383 -5 0
366 0 366 328 0 c180 0 368 -5 419 -10z m160 -1002 c129 -39 199 -92 245 -186
31 -63 33 -72 33 -177 0 -108 -1 -113 -38 -187 -42 -85 -90 -134 -172 -172
-86 -41 -146 -46 -572 -46 l-403 0 0 396 0 395 428 -4 c350 -3 436 -6 479 -19z"/>
<path d="M3850 1643 c-92 -47 -86 -178 10 -217 49 -20 92 -12 130 24 101 94
-17 256 -140 193z m95 -17 c39 -17 55 -42 55 -86 0 -62 -34 -99 -93 -100 -101
-1 -134 146 -42 186 38 17 39 17 80 0z"/>
<path d="M3860 1536 c0 -44 4 -76 10 -76 6 0 10 14 10 30 0 20 5 30 15 30 8 0
21 -13 30 -30 16 -30 35 -40 35 -17 0 6 -7 20 -15 30 -12 16 -11 21 7 39 30
30 5 62 -51 66 l-41 3 0 -75z m78 32 c3 -14 -3 -18 -27 -18 -25 0 -31 4 -31
21 0 16 5 20 27 17 17 -2 29 -10 31 -20z"/>
<path d="M17 1253 c-4 -3 -7 -64 -7 -135 l0 -128 2010 0 2010 0 0 135 0 135
-2003 0 c-1102 0 -2007 -3 -2010 -7z"/>
<path d="M190 651 c-78 -25 -148 -89 -171 -157 -21 -61 -17 -170 10 -229 29
-65 55 -93 116 -121 90 -43 202 -28 269 34 32 30 65 96 66 130 0 20 -5 22 -53
22 -51 0 -53 -1 -66 -35 -25 -69 -102 -96 -172 -59 -81 41 -93 218 -20 288 56
54 152 42 186 -24 14 -28 20 -30 70 -30 55 0 55 0 49 28 -15 63 -50 105 -113
137 -39 20 -134 29 -171 16z"/>
<path d="M3067 644 c-4 -4 -7 -25 -7 -46 l0 -38 56 0 55 0 -3 43 -3 42 -45 3
c-25 2 -49 0 -53 -4z"/>
<path d="M2810 566 c0 -56 0 -56 -30 -56 -28 0 -30 -2 -30 -40 0 -38 2 -40 30
-40 l30 0 0 -125 c0 -120 1 -127 25 -150 21 -22 33 -25 90 -25 l65 0 0 39 c0
37 -2 40 -32 43 l-33 3 -3 108 -3 107 36 0 c36 0 36 1 33 38 -3 34 -6 37 -35
40 -31 3 -32 5 -35 55 l-3 52 -52 3 -53 3 0 -55z"/>
<path d="M671 508 c-149 -26 -200 -234 -84 -342 83 -77 251 -49 298 50 47 100
16 231 -66 275 -33 17 -102 25 -148 17z m108 -104 c24 -30 29 -116 10 -157
-24 -52 -87 -60 -130 -18 -24 25 -29 37 -29 81 0 52 19 104 42 113 7 3 30 6
50 6 28 1 41 -5 57 -25z"/>
<path d="M1145 504 c-22 -7 -48 -23 -57 -34 -17 -20 -17 -20 -20 7 -3 26 -7
28 -50 31 l-48 3 0 -190 0 -191 50 0 50 0 0 88 c0 146 25 196 101 197 l39 0 0
46 c0 55 -11 62 -65 43z"/>
<path d="M2286 509 c-16 -4 -42 -20 -57 -35 l-29 -28 0 33 0 32 -47 -3 -48 -3
-3 -188 -2 -188 52 3 53 3 5 117 c4 105 7 120 27 140 16 15 35 22 63 23 l40 0
0 46 c0 52 -9 60 -54 48z"/>
<path d="M2499 509 c-73 -11 -111 -39 -124 -91 -7 -28 -7 -28 47 -28 46 0 55
3 63 23 11 23 49 33 91 23 19 -5 24 -13 24 -36 0 -25 -5 -30 -37 -39 -21 -6
-47 -11 -58 -11 -40 0 -98 -22 -121 -45 -18 -18 -24 -35 -24 -69 0 -97 98
-144 204 -98 37 17 46 18 46 6 0 -10 13 -14 53 -14 l52 0 -3 152 c-3 162 -10
185 -54 210 -32 17 -105 25 -159 17z m101 -243 c0 -61 -68 -95 -118 -60 -53
37 -1 89 96 93 19 1 22 -4 22 -33z"/>
<path d="M3380 508 c-110 -19 -169 -125 -140 -249 23 -95 107 -148 214 -135
92 10 153 74 163 171 9 75 -32 165 -88 196 -33 17 -102 25 -149 17z m105 -103
c21 -20 25 -34 25 -79 0 -66 -14 -100 -47 -115 -47 -21 -95 -4 -114 40 -18 46
-7 138 21 161 32 26 86 23 115 -7z"/>
<path d="M1250 255 l0 -255 50 0 50 0 0 86 0 85 26 -20 c90 -71 217 -12 245
113 20 93 -18 198 -85 230 -48 23 -127 21 -159 -4 -25 -20 -25 -20 -30 0 -4
16 -14 20 -51 20 l-46 0 0 -255z m240 155 c42 -42 40 -149 -5 -187 -36 -31
-70 -29 -106 6 -24 25 -29 37 -29 81 0 52 19 104 42 113 31 13 79 6 98 -13z"/>
<path d="M1746 487 c-95 -53 -121 -212 -48 -299 66 -78 208 -89 284 -21 50 44
74 160 47 230 -14 38 -57 83 -96 99 -51 22 -141 18 -187 -9z m158 -76 c41 -46
41 -146 0 -188 -48 -48 -129 -14 -141 59 -8 50 4 105 28 129 25 25 90 26 113
0z"/>
<path d="M3067 504 c-4 -4 -7 -90 -7 -191 l0 -183 55 0 55 0 -2 187 -3 188
-45 3 c-25 2 -49 0 -53 -4z"/>
<path d="M3680 320 l0 -190 55 0 55 0 0 130 c0 117 2 132 20 150 20 20 65 26
88 12 22 -14 32 -73 32 -184 l0 -108 50 0 50 0 0 140 c0 202 -21 240 -131 240
-47 0 -63 -5 -88 -26 l-31 -26 0 26 c0 25 -3 26 -50 26 l-50 0 0 -190z"/>
</g>
</svg>
