<svg version="1.1" id="Layer_1" xmlns="http://www.w3.org/2000/svg" xmlns:xlink="http://www.w3.org/1999/xlink" x="0px" y="0px"
	 width="1280" height="187" viewBox="0 0 1280 187" enable-background="new 0 0 1280 187" xml:space="preserve">
<path fill="#00000000" opacity="0.000000" stroke="none"
	d="
M974.000000,188.000000 
	C797.642578,188.000000 621.285156,188.000000 444.237091,187.612885 
	C444.030060,185.202057 444.933563,183.178894 444.936218,181.154556 
	C445.012115,123.662666 444.997437,66.170647 444.996094,8.678656 
	C444.996063,7.679014 445.280609,6.535700 444.891693,5.715984 
	C444.402405,4.684795 443.366852,3.164015 442.547150,3.151473 
	C431.458038,2.981809 420.365509,3.037564 409.000000,3.037564 
	C409.000000,65.129379 409.000000,126.564690 409.000000,188.000000 
	C352.642578,188.000000 296.285187,188.000000 239.285172,187.557861 
	C238.761703,169.134567 238.894791,151.153503 238.993256,133.172256 
	C239.033829,125.760605 238.999969,118.348564 238.999969,110.392242 
	C240.119995,111.573349 240.853531,112.174797 241.376511,112.923347 
	C256.809418,135.012482 272.397186,156.997253 287.499268,179.310654 
	C290.812500,184.206009 293.896698,186.535934 300.109467,186.188721 
	C311.812531,185.534653 323.578156,186.000015 336.461243,186.000015 
	C316.930878,159.924515 298.054535,134.722244 279.118469,109.440208 
	C282.835175,108.216644 286.302002,107.294205 289.596283,105.949104 
	C298.836334,102.176224 307.105927,97.052139 313.067352,88.727951 
	C321.372711,77.130768 324.202789,64.555992 322.221619,50.268593 
	C320.580841,38.435627 316.103546,28.318506 308.171631,19.788071 
	C296.853119,7.615530 281.927704,3.439853 265.979675,3.111407 
	C245.662567,2.692980 225.328293,3.107753 204.608841,3.331902 
	C204.144745,4.327347 204.010712,5.154233 204.010559,5.981143 
	C204.000381,64.979759 203.996902,123.978386 204.026352,182.976990 
	C204.026993,184.259415 204.414551,185.541656 204.742035,187.263763 
	C204.574951,187.802383 204.287476,187.901199 204.000000,188.000000 
	C162.975922,188.000000 121.951843,188.000000 80.276375,187.593170 
	C80.636665,186.792084 81.648148,186.055771 82.660057,186.055176 
	C96.483238,186.047073 107.619286,179.869904 116.931152,170.389725 
	C124.682365,162.498413 128.134125,152.491531 130.364090,141.605270 
	C133.717728,125.233406 124.416199,104.450508 112.908485,96.092491 
	C107.624039,92.254417 101.606445,89.425751 96.009682,86.190430 
	C105.452652,81.265968 111.624420,72.677261 113.497566,61.644623 
	C114.629196,54.979450 114.541161,47.932907 113.862114,41.172127 
	C112.582314,28.429979 105.796852,18.640955 95.744850,10.907357 
	C87.490463,4.556763 77.771690,3.224208 67.951271,3.090676 
	C45.637894,2.787271 23.317526,2.998161 1.000000,3.000000 
	C1.332896,2.333333 1.547095,1.216290 2.022659,1.090956 
	C3.113076,0.803578 4.330999,1.000000 5.497156,1.000000 
	C329.022186,1.000000 652.547241,1.000000 976.877197,1.303903 
	C976.871399,2.070031 976.108521,2.669196 975.242188,2.972819 
	C968.408508,5.367464 961.158264,6.937351 954.792297,10.225017 
	C942.436279,16.606125 932.173218,25.760530 923.625793,36.828083 
	C911.986145,51.899502 905.696533,69.090164 904.131958,87.847511 
	C902.954468,101.964188 904.796814,115.849060 909.924072,129.287888 
	C921.085815,158.543121 941.526062,177.478470 971.634949,186.047043 
	C972.535583,186.303360 973.216614,187.331635 974.000000,188.000000 
M596.049255,36.007042 
	C607.630005,36.007042 619.210693,36.007042 630.745728,36.007042 
	C630.745728,24.648491 630.745728,14.050770 630.745728,3.274112 
	C594.116760,3.274112 557.742432,3.274112 521.340820,3.274112 
	C521.340820,14.277076 521.340820,24.995455 521.340820,36.253040 
	C534.063843,36.253040 546.454346,36.253040 559.171265,36.253040 
	C559.171265,86.380859 559.171265,135.963760 559.171265,185.904236 
	C570.964844,185.904236 582.414062,185.911789 593.862976,185.864685 
	C594.179077,185.863388 594.492798,185.274887 594.964844,184.041046 
	C594.976562,177.396622 594.992432,170.752213 594.999329,164.107788 
	C595.043518,121.418465 595.085693,78.729141 596.049255,36.007042 
M827.431396,114.000542 
	C829.865356,114.000542 832.299316,114.000542 834.670044,114.000542 
	C834.670044,101.669945 834.670044,89.940285 834.670044,77.749741 
	C816.944458,77.749741 799.545471,77.749741 781.866028,77.749741 
	C781.866028,60.004768 781.866028,42.726112 781.866028,25.242939 
	C769.846008,25.242939 758.117737,25.242939 745.922485,25.242939 
	C745.922485,42.879105 745.922485,60.278751 745.922485,78.137161 
	C728.060791,78.137161 710.661194,78.137161 693.332764,78.137161 
	C693.332764,90.337616 693.332764,102.067497 693.332764,114.257507 
	C711.061951,114.257507 728.460999,114.257507 746.140015,114.257507 
	C746.140015,132.002197 746.140015,149.280869 746.140015,166.754150 
	C758.159912,166.754150 769.888245,166.754150 782.083618,166.754150 
	C782.083618,149.114792 782.083618,131.715164 782.083618,114.000542 
	C797.182495,114.000542 811.816162,114.000542 827.431396,114.000542 
z"/>
<path fill="#000000" opacity="0.000000" stroke="none"
	d="
M1172.000000,188.000000 
	C1118.645752,188.000000 1065.291504,188.000000 1011.130859,187.685196 
	C1011.144592,186.916214 1011.917725,186.320084 1012.792358,186.030045 
	C1020.580444,183.447693 1028.407349,180.981018 1036.177856,178.347824 
	C1039.753418,177.136154 1041.391968,174.834061 1041.116577,170.658997 
	C1040.679199,164.028381 1040.999878,157.347794 1040.999878,150.688339 
	C1040.999878,146.495438 1040.999878,142.302551 1040.999878,137.584030 
	C1004.702026,162.407730 975.187378,159.195770 954.927002,135.220352 
	C937.622986,114.743530 932.948120,83.401100 952.141235,56.710590 
	C959.424866,46.581665 969.237305,39.120476 981.545959,36.307812 
	C1003.150208,31.370985 1022.296204,37.639801 1039.807373,51.628845 
	C1039.807373,37.920704 1039.807373,25.161249 1039.807373,11.460363 
	C1030.985107,8.688463 1021.916870,5.872956 1012.886536,2.940902 
	C1012.127625,2.694489 1011.622864,1.665444 1011.000000,0.999996 
	C1062.687622,1.000000 1114.375122,1.000000 1166.868896,1.312048 
	C1165.279663,2.417361 1162.906860,3.288459 1160.485229,3.991679 
	C1139.393555,10.116455 1121.922241,21.695175 1109.733643,39.989376 
	C1098.054443,57.518993 1092.700684,76.963676 1093.806641,98.407738 
	C1094.775391,117.193230 1099.967163,134.205963 1111.098267,149.193542 
	C1125.887329,169.106567 1145.226318,182.094635 1170.108032,186.076355 
	C1170.822998,186.190765 1171.373047,187.335617 1172.000000,188.000000 
z"/>
<path fill="#FAD813" opacity="1.000000" stroke="none"
	d="
M1172.468628,188.000000 
	C1171.373047,187.335617 1170.822998,186.190765 1170.108032,186.076355 
	C1145.226318,182.094635 1125.887329,169.106567 1111.098267,149.193542 
	C1099.967163,134.205963 1094.775391,117.193230 1093.806641,98.407738 
	C1092.700684,76.963676 1098.054443,57.518993 1109.733643,39.989376 
	C1121.922241,21.695175 1139.393555,10.116455 1160.485229,3.991679 
	C1162.906860,3.288459 1165.279663,2.417361 1167.337646,1.312048 
	C1179.687622,1.000000 1192.375122,1.000000 1205.190308,1.303512 
	C1205.961914,2.061577 1206.550781,2.786660 1207.258057,2.930850 
	C1222.523682,6.042889 1236.015381,12.992166 1247.521118,23.209827 
	C1265.863892,39.499363 1277.219727,59.682888 1279.079956,84.620377 
	C1279.142334,85.456673 1280.334473,86.208694 1281.000000,87.000000 
	C1281.000000,91.689255 1281.000000,96.378510 1280.665771,101.191772 
	C1279.888916,102.318474 1279.136597,103.295074 1279.049438,104.327789 
	C1277.363159,124.329979 1269.286621,141.606903 1256.018555,156.345490 
	C1241.507568,172.464783 1223.374268,182.423431 1201.875732,186.075409 
	C1201.162109,186.196625 1200.621338,187.335510 1200.000000,188.000000 
	C1190.979126,188.000000 1181.958130,188.000000 1172.468628,188.000000 
M1220.291382,142.954819 
	C1222.867310,140.522354 1225.577148,138.215576 1227.996460,135.636276 
	C1240.583252,122.217720 1245.987427,106.507385 1244.113770,87.998291 
	C1242.530396,72.355370 1236.615845,58.845131 1224.898560,48.696938 
	C1213.213135,38.576229 1199.162354,34.203617 1183.348267,34.847057 
	C1168.965332,35.432270 1156.636475,40.247890 1146.494019,50.127293 
	C1129.605103,66.578224 1125.671997,87.156021 1130.315308,109.308273 
	C1134.128784,127.501610 1145.034058,141.051620 1162.307251,148.592209 
	C1172.199463,152.910660 1182.468628,155.140640 1193.620483,153.188721 
	C1203.098389,151.529785 1211.678589,148.389328 1220.291382,142.954819 
z"/>
<path fill="#EB4934" opacity="1.000000" stroke="none" 
	d="
M1.000000,3.468657 
	C23.317526,2.998161 45.637894,2.787271 67.951271,3.090676 
	C77.771690,3.224208 87.490463,4.556763 95.744850,10.907357 
	C105.796852,18.640955 112.582314,28.429979 113.862114,41.172127 
	C114.541161,47.932907 114.629196,54.979450 113.497566,61.644623 
	C111.624420,72.677261 105.452652,81.265968 96.009682,86.190430 
	C101.606445,89.425751 107.624039,92.254417 112.908485,96.092491 
	C124.416199,104.450508 133.717728,125.233406 130.364090,141.605270 
	C128.134125,152.491531 124.682365,162.498413 116.931152,170.389725 
	C107.619286,179.869904 96.483238,186.047073 82.660057,186.055176 
	C81.648148,186.055771 80.636665,186.792084 79.812492,187.593170 
	C53.710365,188.000000 27.420729,188.000000 1.000000,188.000000 
	C1.000000,126.645828 1.000000,65.291573 1.000000,3.468657 
M54.496132,157.999969 
	C58.320335,157.999908 62.169552,158.280914 65.963715,157.943298 
	C74.819710,157.155243 83.306740,155.741608 89.076759,147.530594 
	C99.046684,133.342865 93.310455,111.918854 77.049683,108.361916 
	C63.595181,105.418831 49.357426,106.056458 35.314415,105.097168 
	C35.314415,123.610008 35.314415,140.632370 35.314415,157.999969 
	C41.582310,157.999969 47.540180,157.999969 54.496132,157.999969 
M52.459877,32.999947 
	C46.711216,32.999947 40.962555,32.999947 35.402981,32.999947 
	C35.402981,48.105270 35.402981,62.472618 35.402981,76.997589 
	C43.619160,76.997589 51.458153,77.400726 59.241211,76.912392 
	C74.716202,75.941437 81.420952,60.543888 78.331299,48.929474 
	C75.252327,37.355217 67.947601,33.000206 52.459877,32.999947 
z"/>
<path fill="#EB4934" opacity="1.000000" stroke="none"
	d="
M205.001404,3.163353 
	C225.328293,3.107753 245.662567,2.692980 265.979675,3.111407 
	C281.927704,3.439853 296.853119,7.615530 308.171631,19.788071 
	C316.103546,28.318506 320.580841,38.435627 322.221619,50.268593 
	C324.202789,64.555992 321.372711,77.130768 313.067352,88.727951 
	C307.105927,97.052139 298.836334,102.176224 289.596283,105.949104 
	C286.302002,107.294205 282.835175,108.216644 279.118469,109.440208 
	C298.054535,134.722244 316.930878,159.924515 336.461243,186.000015 
	C323.578156,186.000015 311.812531,185.534653 300.109467,186.188721 
	C293.896698,186.535934 290.812500,184.206009 287.499268,179.310654 
	C272.397186,156.997253 256.809418,135.012482 241.376511,112.923347 
	C240.853531,112.174797 240.119995,111.573349 238.999969,110.392242 
	C238.999969,118.348564 239.033829,125.760605 238.993256,133.172256 
	C238.894791,151.153503 238.761703,169.134567 238.821289,187.557861 
	C227.645767,188.000000 216.291550,188.000000 204.468658,188.000000 
	C204.287476,187.901199 204.574951,187.802383 204.844070,186.883026 
	C204.883804,184.066971 204.992340,182.071442 204.992661,180.075897 
	C205.002167,121.105049 205.000946,62.134201 205.001404,3.163353 
M285.023651,49.791061 
	C282.911560,43.478649 279.285095,38.858414 272.915222,35.871536 
	C262.197449,30.845909 251.214188,34.047081 240.370941,32.915764 
	C240.370941,51.340069 240.370941,69.055786 240.370941,86.726685 
	C249.049011,86.726685 257.657898,88.140808 265.601135,86.442169 
	C284.044403,82.498138 288.319702,67.103661 285.023651,49.791061 
z"/>
<path fill="#FAD813" opacity="1.000000" stroke="none" 
	d="
M1010.531372,0.999996 
	C1011.622864,1.665444 1012.127625,2.694489 1012.886536,2.940902 
	C1021.916870,5.872956 1030.985107,8.688463 1039.807373,11.460363 
	C1039.807373,25.161249 1039.807373,37.920704 1039.807373,51.628845 
	C1022.296204,37.639801 1003.150208,31.370985 981.545959,36.307812 
	C969.237305,39.120476 959.424866,46.581665 952.141235,56.710590 
	C932.948120,83.401100 937.622986,114.743530 954.927002,135.220352 
	C975.187378,159.195770 1004.702026,162.407730 1040.999878,137.584030 
	C1040.999878,142.302551 1040.999878,146.495438 1040.999878,150.688339 
	C1040.999878,157.347794 1040.679199,164.028381 1041.116577,170.658997 
	C1041.391968,174.834061 1039.753418,177.136154 1036.177856,178.347824 
	C1028.407349,180.981018 1020.580444,183.447693 1012.792358,186.030045 
	C1011.917725,186.320084 1011.144592,186.916214 1010.662231,187.685196 
	C998.979126,188.000000 986.958191,188.000000 974.468628,188.000000 
	C973.216614,187.331635 972.535583,186.303360 971.634949,186.047043 
	C941.526062,177.478470 921.085815,158.543121 909.924072,129.287888 
	C904.796814,115.849060 902.954468,101.964188 904.131958,87.847511 
	C905.696533,69.090164 911.986145,51.899502 923.625793,36.828083 
	C932.173218,25.760530 942.436279,16.606125 954.792297,10.225017 
	C961.158264,6.937351 968.408508,5.367464 975.242188,2.972819 
	C976.108521,2.669196 976.871399,2.070031 977.341064,1.303903 
	C988.020874,1.000000 999.041809,1.000000 1010.531372,0.999996 
z"/>
<path fill="#EB4934" opacity="1.000000" stroke="none" 
	d="
M409.468658,188.000000 
	C409.000000,126.564690 409.000000,65.129379 409.000000,3.037564 
	C420.365509,3.037564 431.458038,2.981809 442.547150,3.151473 
	C443.366852,3.164015 444.402405,4.684795 444.891693,5.715984 
	C445.280609,6.535700 444.996063,7.679014 444.996094,8.678656 
	C444.997437,66.170647 445.012115,123.662666 444.936218,181.154556 
	C444.933563,183.178894 444.030060,185.202057 443.773193,187.612885 
	C432.645782,188.000000 421.291534,188.000000 409.468658,188.000000 
z"/>
<path fill="#000000" opacity="0.000000" stroke="none"
	d="
M1200.468628,188.000000 
	C1200.621338,187.335510 1201.162109,186.196625 1201.875732,186.075409 
	C1223.374268,182.423431 1241.507568,172.464783 1256.018555,156.345490 
	C1269.286621,141.606903 1277.363159,124.329979 1279.049438,104.327789 
	C1279.136597,103.295074 1279.888916,102.318474 1280.665771,101.657883 
	C1281.000000,130.591385 1281.000000,159.182770 1281.000000,188.000000 
	C1254.312866,188.000000 1227.625000,188.000000 1200.468628,188.000000 
z"/>
<path fill="#000000" opacity="0.000000" stroke="none"
	d="
M1281.000000,86.531342 
	C1280.334473,86.208694 1279.142334,85.456673 1279.079956,84.620377 
	C1277.219727,59.682888 1265.863892,39.499363 1247.521118,23.209827 
	C1236.015381,12.992166 1222.523682,6.042889 1207.258057,2.930850 
	C1206.550781,2.786660 1205.961914,2.061577 1205.658936,1.303512 
	C1230.931885,1.000000 1255.863770,1.000000 1281.000000,1.000000 
	C1281.000000,29.353901 1281.000000,57.708290 1281.000000,86.531342 
z"/>
<path fill="#9FD5BA" opacity="1.000000" stroke="none" 
	d="
M826.940613,114.000542 
	C811.816162,114.000542 797.182495,114.000542 782.083618,114.000542 
	C782.083618,131.715164 782.083618,149.114792 782.083618,166.754150 
	C769.888245,166.754150 758.159912,166.754150 746.140015,166.754150 
	C746.140015,149.280869 746.140015,132.002197 746.140015,114.257507 
	C728.460999,114.257507 711.061951,114.257507 693.332764,114.257507 
	C693.332764,102.067497 693.332764,90.337616 693.332764,78.137161 
	C710.661194,78.137161 728.060791,78.137161 745.922485,78.137161 
	C745.922485,60.278751 745.922485,42.879105 745.922485,25.242939 
	C758.117737,25.242939 769.846008,25.242939 781.866028,25.242939 
	C781.866028,42.726112 781.866028,60.004768 781.866028,77.749741 
	C799.545471,77.749741 816.944458,77.749741 834.670044,77.749741 
	C834.670044,89.940285 834.670044,101.669945 834.670044,114.000542 
	C832.299316,114.000542 829.865356,114.000542 826.940613,114.000542 
z"/>
<path fill="#EB4934" opacity="1.000000" stroke="none" 
	d="
M594.807617,184.960175 
	C594.492798,185.274887 594.179077,185.863388 593.862976,185.864685 
	C582.414062,185.911789 570.964844,185.904236 559.171265,185.904236 
	C559.171265,135.963760 559.171265,86.380859 559.171265,36.253040 
	C546.454346,36.253040 534.063843,36.253040 521.340820,36.253040 
	C521.340820,24.995455 521.340820,14.277076 521.340820,3.274112 
	C557.742432,3.274112 594.116760,3.274112 630.745728,3.274112 
	C630.745728,14.050770 630.745728,24.648491 630.745728,36.007042 
	C619.210693,36.007042 607.630005,36.007042 595.319702,36.337929 
	C594.393433,38.297234 594.026123,39.925541 594.025024,41.554089 
	C593.994080,87.580605 593.991028,133.607162 594.034058,179.633652 
	C594.035706,181.409393 594.538391,183.184677 594.807617,184.960175 
z"/>
<path fill="#DF4040" opacity="1.000000" stroke="none" 
	d="
M204.608841,3.331902 
	C205.000946,62.134201 205.002167,121.105049 204.992661,180.075897 
	C204.992340,182.071442 204.883804,184.066971 204.723663,186.443237 
	C204.414551,185.541656 204.026993,184.259415 204.026352,182.976990 
	C203.996902,123.978386 204.000381,64.979759 204.010559,5.981143 
	C204.010712,5.154233 204.144745,4.327347 204.608841,3.331902 
z"/>
<path fill="#DF4040" opacity="1.000000" stroke="none" 
	d="
M594.886230,184.500610 
	C594.538391,183.184677 594.035706,181.409393 594.034058,179.633652 
	C593.991028,133.607162 593.994080,87.580605 594.025024,41.554089 
	C594.026123,39.925541 594.393433,38.297234 594.859375,36.354317 
	C595.085693,78.729141 595.043518,121.418465 594.999329,164.107788 
	C594.992432,170.752213 594.976562,177.396622 594.886230,184.500610 
z"/>
<path fill="#000000" opacity="0.000000" stroke="none"
	d="
M1219.926025,143.001404 
	C1211.678589,148.389328 1203.098389,151.529785 1193.620483,153.188721 
	C1182.468628,155.140640 1172.199463,152.910660 1162.307251,148.592209 
	C1145.034058,141.051620 1134.128784,127.501610 1130.315308,109.308273 
	C1125.671997,87.156021 1129.605103,66.578224 1146.494019,50.127293 
	C1156.636475,40.247890 1168.965332,35.432270 1183.348267,34.847057 
	C1199.162354,34.203617 1213.213135,38.576229 1224.898560,48.696938 
	C1236.615845,58.845131 1242.530396,72.355370 1244.113770,87.998291 
	C1245.987427,106.507385 1240.583252,122.217720 1227.996460,135.636276 
	C1225.577148,138.215576 1222.867310,140.522354 1219.926025,143.001404 
z"/>
<path fill="#000000" opacity="0.000000" stroke="none"
	d="
M53.997089,157.999969 
	C47.540180,157.999969 41.582310,157.999969 35.314415,157.999969 
	C35.314415,140.632370 35.314415,123.610008 35.314415,105.097168 
	C49.357426,106.056458 63.595181,105.418831 77.049683,108.361916 
	C93.310455,111.918854 99.046684,133.342865 89.076759,147.530594 
	C83.306740,155.741608 74.819710,157.155243 65.963715,157.943298 
	C62.169552,158.280914 58.320335,157.999908 53.997089,157.999969 
z"/>
<path fill="#000000" opacity="0.000000" stroke="none"
	d="
M52.950371,32.999947 
	C67.947601,33.000206 75.252327,37.355217 78.331299,48.929474 
	C81.420952,60.543888 74.716202,75.941437 59.241211,76.912392 
	C51.458153,77.400726 43.619160,76.997589 35.402981,76.997589 
	C35.402981,62.472618 35.402981,48.105270 35.402981,32.999947 
	C40.962555,32.999947 46.711216,32.999947 52.950371,32.999947 
z"/>
<path fill="#000000" opacity="0.000000" stroke="none"
	d="
M285.104309,50.206375 
	C288.319702,67.103661 284.044403,82.498138 265.601135,86.442169 
	C257.657898,88.140808 249.049011,86.726685 240.370941,86.726685 
	C240.370941,69.055786 240.370941,51.340069 240.370941,32.915764 
	C251.214188,34.047081 262.197449,30.845909 272.915222,35.871536 
	C279.285095,38.858414 282.911560,43.478649 285.104309,50.206375 
z"/>
</svg>