<svg width="2031" height="292" viewBox="0 0 2031 292" fill="none" xmlns="http://www.w3.org/2000/svg">
<g clip-path="url(#clip0_3_208)">
<path d="M805.375 293C805 277.858 805 262.716 805 246.693C802.426 249.576 800.172 251.789 798.277 254.275C789.095 266.317 777.1 275.002 763.91 281.849C754.482 286.744 744.196 289.287 733.364 290.153C716.072 291.537 700.544 287.221 686.155 278C675.273 271.026 666.865 261.678 659.951 250.81C647.298 230.919 644.279 208.847 646.172 186.089C647.997 164.151 655.329 143.789 669.821 126.898C683.35 111.13 700.41 100.194 721.021 96.1722C731.228 94.1808 741.832 92.8615 752.179 93.2585C769.033 93.9052 785.508 97.2932 799.943 107.007C801.379 107.973 802.73 109.065 804.706 110.534C804.83 108.512 804.988 107.126 804.989 105.74C805.006 88.5777 804.53 71.398 805.158 54.2586C805.61 41.933 797.79 34.5968 787.192 32.0124C783.92 31.2144 780.615 30.5531 777.381 29.8417C777.235 29.4149 777.042 29.1076 777.035 28.7962C776.811 18.6515 776.813 18.6513 786.8 16.0331C804.349 11.4319 821.895 6.81685 839.456 2.25943C840.711 1.93382 842.075 2.03096 844 1.88525C844 3.83227 844 5.5942 844 7.35613C844 83.6707 844.006 159.985 843.993 236.3C843.991 247.223 852.136 259.886 862.877 262.361C865.066 262.866 867.336 263.02 869.787 263.366C869.787 266.912 869.787 270.535 869.787 274.688C849.451 280.492 828.848 286.372 808.123 292.626C807.25 293 806.5 293 805.375 293ZM805 221.032C805 197.876 805.014 174.72 804.969 151.564C804.966 149.98 804.876 148.236 804.234 146.837C798.28 133.853 789.637 123.098 777.776 114.953C766.009 106.874 752.967 104.035 738.94 105.015C728.497 105.745 719.06 109.375 711.276 116.326C695.427 130.479 690.937 149.64 689.121 169.633C688.386 177.731 688.914 185.952 689.02 194.115C689.189 207.226 692.241 219.673 697.943 231.479C709.611 255.635 737.378 265.77 762.124 258.506C777.205 254.079 788.291 244.221 798.364 232.96C801.176 229.817 802.82 225.629 805 221.032Z" fill="black"/>
<path d="M1863.75 1C1864.33 3.06107 1864.96 5.12187 1864.96 7.18323C1865.01 65.4986 1865 123.814 1865 182.13C1865 183.958 1865 185.787 1865 188.654C1869.22 185.475 1872.92 182.811 1876.49 179.975C1894.69 165.496 1912.92 151.042 1931 136.417C1935.74 132.588 1940.29 128.434 1944.39 123.943C1947.08 120.997 1950.34 117.606 1948.33 112.861C1946.13 107.673 1941.5 106.32 1936.42 106.023C1934.12 105.889 1931.81 106 1929.26 106C1929.26 102.336 1929.26 98.9277 1929.26 95.2567C1959.34 95.2567 1989.4 95.2567 2019.74 95.2567C2019.74 98.661 2019.74 102.066 2019.74 104.592C2010.72 106.411 2001.76 107.719 1993.09 110.087C1980.92 113.412 1970.88 120.838 1961.04 128.445C1950.01 136.979 1938.94 145.471 1927.91 154.015C1921.28 159.148 1914.7 164.346 1907.67 169.854C1925.18 167.149 1940.49 169.638 1953.49 181.892C1968.88 196.39 1977.53 214.879 1986.18 233.625C1991.26 244.644 1997.45 255.264 2004.17 265.377C2010.33 274.637 2019.7 278.693 2031.54 277C2032 280.031 2032 283.061 2032 286.546C2011.18 287 1990.37 287 1969.18 287C1963.11 272.716 1957.48 258.23 1950.86 244.203C1944.3 230.282 1937.38 216.447 1929.43 203.293C1924.03 194.369 1917.15 186.315 1905.68 183.806C1896.43 181.783 1889.32 185.908 1882.35 190.352C1876.9 193.825 1872.04 198.277 1867.14 202.545C1865.98 203.557 1865.1 205.569 1865.09 207.13C1864.95 224.286 1864.94 241.444 1865.03 258.601C1865.07 267.15 1871.65 274.44 1880.45 275.975C1883.48 276.502 1886.53 276.849 1889.78 277.31C1889.78 280.696 1889.78 284.114 1889.78 287.768C1859.95 287.768 1830.22 287.768 1800.25 287.768C1800.25 284.298 1800.25 280.89 1800.25 278.052C1805.98 276.485 1811.95 275.827 1816.94 273.263C1824.09 269.582 1825.92 262.097 1825.93 254.659C1826.05 186.862 1826.13 119.066 1825.86 51.2703C1825.82 41.5672 1821.71 37.0262 1811.88 33.1078C1807.61 31.4031 1802.93 30.6971 1798.28 29.496C1798.26 29.449 1798.05 29.1479 1798.04 28.8417C1797.79 18.9354 1797.77 18.8506 1807.32 16.3107C1825.79 11.4014 1844.28 6.59777 1862.88 1.37515C1863 0.999994 1863.5 0.999994 1863.75 1Z" fill="black"/>
<path d="M385.458 293C382.666 280.637 380.383 268.265 377.984 255.914C375.523 243.244 372.919 230.602 370.456 217.932C370.053 215.859 370.052 213.707 369.878 211.734C370.414 211.39 370.671 211.095 370.961 211.059C377.121 210.297 381.407 211.114 384.154 218.383C390.02 233.904 399.776 247.226 412.039 258.447C423.443 268.881 436.561 275.985 452.235 278.079C467.438 280.111 481.975 278.854 495.925 272.041C513.758 263.331 515.438 239.325 499.318 227.563C487.499 218.94 474.078 215.153 460.265 212.018C442.102 207.895 423.651 204.623 406.927 195.917C396.95 190.724 387.828 184.362 381.721 174.379C374.993 163.382 372.969 151.822 374.773 139.046C375.82 131.64 377.866 124.834 381.871 118.756C389.853 106.64 401.767 99.6175 415.423 96.2203C425.131 93.8051 435.288 92.815 445.308 92.1334C457.613 91.2966 469.225 95.4886 481.007 98.4203C488.908 100.386 496.06 99.2866 500.098 89.4702C500.554 88.362 502.29 87.2886 503.56 87.1099C506.154 86.745 508.835 87.0006 511.732 87.0006C515.437 112.35 519.111 137.492 522.812 162.817C518.987 162.817 515.187 162.817 512.455 162.817C505.031 150.676 498.575 138.547 490.604 127.512C482.109 115.753 470.833 106.622 455.905 104.554C440.548 102.427 425.33 103.068 411.544 111.912C399.042 119.932 398.807 136.13 407.718 146.275C416.552 156.332 428.173 161.329 440.565 164.988C458.866 170.392 477.492 174.859 495.437 181.25C510.758 186.706 524.762 194.961 532.305 210.743C537.736 222.106 537.466 233.948 534.598 245.678C529.432 266.814 513.985 277.929 494.709 285.001C478.914 290.796 462.44 290.705 446.099 289.765C436.684 289.224 427.445 286.062 418.044 284.626C412.87 283.836 407.464 283.624 402.275 284.188C398.258 284.624 395.839 287.755 396 292.601C392.639 293 389.277 293 385.458 293Z" fill="black"/>
<path d="M1 23.4606C40.7936 23 80.5871 23 120.69 23C120.69 26.9019 120.69 30.6415 120.69 34.4986C115.176 34.9897 109.427 35.0446 103.864 36.0901C91.3001 38.4512 82.7529 45.0849 82.8395 59.8638C83.2142 123.824 83.2788 187.789 82.7707 251.748C82.6659 264.934 90.5449 272.505 101.697 274.919C107.861 276.253 114.2 276.783 120.761 277.718C120.761 280.702 120.761 284.108 120.761 288C81.1112 288 41.5242 288 1.46866 288C1 284.639 1 281.277 1.45762 277.458C6.49486 276.666 11.1495 276.744 15.6406 275.925C31.8256 272.974 38.7278 267.011 38.8217 252.396C39.2347 188.09 39.0331 123.78 38.9684 59.4719C38.9572 48.3371 33.5508 40.4314 22.7784 37.5617C15.7876 35.6993 8.27745 35.7864 1 35C1 31.3071 1 27.6142 1 23.4606Z" fill="black"/>
<path d="M1138 186C1138 208.5 1138.33 230.506 1137.9 252.497C1137.54 270.599 1148.25 275.495 1161.35 277.936C1165.99 278.8 1170.76 278.932 1175.75 279.425C1175.75 282.004 1175.75 284.744 1175.75 287.746C1135.99 287.746 1096.25 287.746 1056.25 287.746C1056.25 284.984 1056.25 282.246 1056.25 279.7C1062.72 278.792 1069.27 278.42 1075.52 276.874C1086.36 274.195 1094.16 267.794 1094.11 253.828C1093.86 188.33 1093.87 122.83 1094.1 57.332C1094.15 42.1315 1085.35 38.1605 1074.35 36.1059C1068.57 35.0263 1062.58 35.0381 1056.33 34.5278C1056.33 31.1403 1056.33 27.3984 1056.33 23.3256C1095.87 23.3256 1135.61 23.3256 1175.67 23.3256C1175.67 26.8745 1175.67 30.6152 1175.67 34.5041C1170.54 34.9901 1165.16 35.2241 1159.88 36.0527C1147.36 38.0176 1137.63 45.421 1137.88 60.8728C1138.31 87.6885 1138 114.516 1138 141.669C1187.2 141.669 1236.27 141.669 1286 141.669C1286 140.116 1286 138.362 1286 136.608C1286 109.942 1285.75 83.2721 1286.11 56.6105C1286.28 43.8567 1279.15 39.668 1270.21 37.1995C1263.23 35.2726 1255.76 35.1256 1248.18 34.1447C1248.19 34.2333 1248.02 33.7801 1248.02 33.3247C1247.89 23 1247.89 23 1258.35 23C1295 23 1331.66 23 1368.66 23C1368.66 26.8444 1368.66 30.585 1368.66 33.8528C1361.52 35.2127 1354.13 36.1081 1347.04 38.0921C1336.86 40.9443 1331 49.4339 1331 59.9062C1331 123.905 1331.26 187.906 1330.79 251.902C1330.69 265.75 1338.74 272.074 1349.46 274.859C1355.56 276.445 1362 276.711 1368.68 277.624C1368.68 280.522 1368.68 283.936 1368.68 287.678C1328.8 287.678 1288.72 287.678 1248 287.678C1248 286.267 1248.18 284.659 1247.97 283.106C1247.31 278.397 1249.02 277.005 1253.94 276.808C1262.77 276.455 1271.96 275.539 1279.1 269.768C1282.33 267.163 1285.65 262.366 1285.7 258.516C1286.21 223.545 1286 188.563 1286 153.292C1236.72 153.292 1187.65 153.292 1138 153.292C1138 163.971 1138 174.735 1138 186Z" fill="black"/>
<path d="M283.014 288C278.872 288 275.226 288 271.291 288C271.291 284.393 271.291 280.986 271.291 277.35C274.857 276.886 278.582 276.666 282.184 275.881C290.878 273.986 296.922 266.414 296.954 256.912C297.071 222.582 297.228 188.249 296.903 153.922C296.743 137.004 285.792 123.884 270.809 121.006C255.11 117.991 240.939 121.775 227.928 130.592C215.962 138.701 206.722 149.414 199.054 161.542C198.337 162.676 198.045 164.26 198.043 165.636C197.987 195.8 197.81 225.966 198.091 256.128C198.207 268.556 205.943 276.103 222.643 277.087C222.643 280.573 222.643 284.088 222.643 287.795C192.856 287.795 163.117 287.795 133.2 287.795C133.2 284.176 133.2 280.763 133.2 277.464C137.246 276.826 141.175 276.578 144.889 275.549C154.422 272.909 158.931 266.292 158.962 254.597C159.063 216.6 159.036 178.603 158.976 140.607C158.96 130.468 151.602 122.568 141.054 121.006C137.856 120.532 134.649 120.11 131.22 119.633C131.22 116.094 131.22 112.473 131.22 108.404C153.087 101.139 175.213 93.7878 197.876 86.2583C197.876 103.889 197.876 120.657 197.876 139.035C201.126 135.214 203.378 132.356 205.846 129.7C219.315 115.208 234.796 103.365 253.749 97.2874C265.652 93.4706 278.024 91.9168 290.853 93.7997C303.668 95.6805 314.844 99.9162 323.892 109.362C330.601 116.366 334.28 124.841 335.91 134.189C336.751 139.009 336.944 143.99 336.956 148.899C337.039 183.729 337.003 218.559 336.999 253.39C336.997 271.248 345.623 275.824 360.499 276.994C361.146 277.045 361.801 277 362.726 277C362.726 280.576 362.726 283.997 362.726 288C336.371 288 309.941 288 283.014 288Z" fill="black"/>
<path d="M1567.98 221.855C1562.76 237.116 1554.98 250.58 1543.74 261.496C1532.09 272.816 1518.33 280.989 1502.64 286.148C1486.65 291.403 1470.31 291.855 1454.01 290.778C1436.6 289.629 1419.66 285.695 1404.08 277.055C1380.77 264.128 1365.87 244.966 1361.18 218.672C1359.4 208.72 1358.52 198.321 1359.24 188.271C1360.72 167.667 1367.7 148.689 1380.39 132.164C1392.17 116.841 1407.14 105.867 1425.61 99.7639C1439.9 95.0434 1454.63 93.1601 1469.5 94.1466C1486.43 95.2689 1503.25 97.3206 1519.25 103.91C1545.79 114.842 1562.93 133.742 1570 161.646C1572.98 173.379 1573.82 185.373 1572.81 197.314C1572.13 205.435 1569.67 213.406 1567.98 221.855ZM1430.97 262.451C1436.89 268.861 1443.62 273.954 1451.93 277.099C1463.48 281.466 1475.07 280.197 1486.5 277.644C1496.9 275.32 1506.29 270.303 1513.32 262.066C1523.77 249.834 1527.42 234.806 1527.74 219.344C1528.01 206.63 1526.71 193.763 1524.82 181.157C1522.35 164.706 1516.86 149.074 1507.97 134.846C1500.24 122.486 1490.52 112.463 1476.23 107.61C1468.31 104.919 1460.24 105.487 1452.27 106.128C1440.61 107.066 1429.9 111.075 1421.27 119.292C1409.56 130.437 1405.17 145.142 1404.3 160.431C1403.53 174.007 1404.65 187.803 1406.14 201.37C1408.59 223.696 1416.41 244.141 1430.97 262.451Z" fill="black"/>
<path d="M1623.77 273.275C1603.51 259.941 1591.4 241.662 1586.96 218.182C1581.1 187.214 1587.31 158.604 1605.56 133.295C1620.55 112.498 1641.49 99.8525 1667.15 96.0947C1675.88 94.8155 1684.83 93.7704 1693.6 94.177C1715.17 95.1764 1736.42 98.0366 1755.76 108.939C1777.13 120.979 1790.64 138.573 1796.15 162.646C1798.79 174.181 1799.7 185.753 1798.87 197.362C1797.48 216.53 1791.09 234.111 1779.74 249.752C1770.11 263.017 1757.76 273.18 1743.11 280.285C1732.68 285.339 1721.68 288.747 1709.98 290.1C1688.88 292.541 1668.13 290.924 1647.94 284.763C1639.61 282.221 1631.98 277.353 1623.77 273.275ZM1747.97 166.793C1744.32 157.907 1741.22 148.738 1736.88 140.2C1730.17 126.993 1720.93 115.93 1707.03 109.443C1698.2 105.323 1688.99 105.321 1679.62 106C1667.34 106.891 1656.23 110.912 1647.19 119.396C1635.25 130.609 1631.31 145.617 1630.24 161.049C1629.16 176.604 1629.68 192.258 1632.89 207.753C1636.25 223.951 1641.28 239.448 1650.19 253.398C1657.12 264.248 1665.94 273.264 1678.74 277.279C1686.92 279.844 1695.13 280.402 1703.74 279.143C1715.85 277.373 1727.08 273.837 1736.05 265.338C1749.1 252.96 1752.94 236.639 1753.93 219.513C1754.94 201.927 1752.29 184.665 1747.97 166.793Z" fill="black"/>
<path d="M1061.27 233.3C1048.49 258.408 1029.71 276.459 1003.09 285.2C994.592 287.991 985.36 288.658 976.414 289.955C963.159 291.876 950.119 289.83 937.574 285.861C919.769 280.228 904.673 270.333 892.76 255.539C883.35 243.855 877.237 230.867 873.742 216.399C868.931 196.478 870.527 176.977 877.609 157.953C883.047 143.346 891.303 130.411 902.796 119.712C915.712 107.689 930.699 99.2955 948.072 96.1665C958.643 94.2626 969.537 92.9532 980.237 93.2362C997.976 93.7054 1015.21 97.4832 1030.04 108.065C1044.51 118.393 1053.75 132.227 1055.97 150.189C1056.67 155.877 1056.96 161.616 1057.48 167.759C1007.78 167.759 958.712 167.759 908.621 167.759C909.106 176.836 908.932 185.58 910.183 194.115C911.983 206.391 915.878 218.119 921.97 229.082C932.503 248.036 947.993 260.45 969.526 263.853C990.887 267.23 1010.1 261.127 1027.33 248.218C1039.76 238.9 1049.43 227.285 1056.69 213.64C1057.91 211.342 1058.83 210.252 1061.53 211.758C1063.73 212.983 1066.32 213.515 1069.44 214.6C1066.78 220.778 1064.14 226.887 1061.27 233.3ZM933.083 114.394C929.2 117.946 925.077 121.273 921.487 125.1C914.797 132.231 911.128 140.844 909.969 150.572C909.474 154.727 911.347 156.039 915.215 156.032C945.163 155.974 975.111 156.039 1005.06 155.967C1010.92 155.953 1018.42 150.353 1018.95 145.585C1020.16 134.565 1017.14 124.698 1008.73 117.389C996.459 106.729 981.156 104.119 965.668 104.236C954.368 104.322 943.622 108.259 933.083 114.394Z" fill="black"/>
<path d="M576 247.921C576 212.455 576.098 177.477 575.867 142.501C575.84 138.491 574.781 134.031 572.802 130.582C568.191 122.546 559.743 120.953 551.191 119.569C551.191 116.056 551.191 112.429 551.191 108.477C572.101 102.631 593.19 96.7347 615 90.6372C615 92.8355 615 94.572 615 96.3084C615 148.275 615.359 200.245 614.785 252.206C614.609 268.187 624.174 276.793 639.668 277.076C639.668 280.47 639.668 283.885 639.668 287.652C610.078 287.652 580.23 287.652 550.19 287.652C550.19 284.176 550.19 280.76 550.19 278.131C555.439 276.46 560.541 275.457 565.064 273.261C573.371 269.229 574.979 261.103 575.974 252.903C576.154 251.426 576 249.909 576 247.921Z" fill="black"/>
<path d="M571.958 52.7844C563.842 38.5431 573.167 21.3668 588.634 18.9263C602.535 16.7328 613.311 22.4507 617.251 34.7509C621.572 48.2409 612.928 61.6036 599.098 64.1313C587.409 66.2677 578.973 61.9275 571.958 52.7844Z" fill="black"/>
</g>
<defs>
<clipPath id="clip0_3_208">
<rect width="2031" height="292" fill="white"/>
</clipPath>
</defs>
</svg>
