<?xml version="1.0" encoding="UTF-8"?>
<svg id="Calque_2" data-name="Calque 2" xmlns="http://www.w3.org/2000/svg" viewBox="0 0 1122.44 241.55" width="1122" height="241">
  <defs>
    <style>
      .cls-1 {
        fill: #e51b24;
      }
    </style>
  </defs>
  <g id="Layer_1" data-name="Layer 1">
    <path class="cls-1" d="m71.43,140.05c-2.08,5.73-4.05,11.1-5.74,16.55-1.58,5.08-5.54,3.62-9.28,3.65-6.68-17.93-13.39-35.93-20.09-53.93-.45.1-.9.21-1.36.31v134.37H0V.38c9.12,0,18.22-.07,27.31.11.83.02,2,1.5,2.4,2.53,9.39,24.19,18.69,48.42,28.03,72.63.53,1.37,1.26,2.67,1.9,4,.45-.04.9-.08,1.35-.13,2.57-6.4,5.23-12.77,7.68-19.22,7.12-18.76,14.15-37.56,21.2-56.35.97-2.59,2.51-3.84,5.58-3.71,6.65.28,13.34.31,19.99,0,4.24-.2,5.39,1.33,5.37,5.44-.14,31.17-.08,62.33-.08,93.5,0,45.33-.06,90.67.1,136,.02,4.72-1.17,6.44-6.11,6.25-9.78-.37-19.59-.11-29.9-.11V108.74c-.54-.15-1.09-.3-1.63-.44-3.85,10.47-7.69,20.95-11.76,31.75Z"/>
    <path class="cls-1" d="m923.81,241.33q-9.06,0-11.2-8.31c-8.32-32.55-16.61-65.1-24.97-97.64-1.03-4.01-2.41-7.92-4.51-11.78v117.32h-34.05V.36c10.04,0,19.99-.14,29.92.19,1.16.04,2.84,2.46,3.27,4.05,4.28,15.9,8.29,31.88,12.48,47.81,4.1,15.58,8.32,31.14,13.49,46.67V.7h33.21v240.64h-17.64Z"/>
    <path class="cls-1" d="m261.44,71.71c2.13,8.03,4.06,15.68,6,23.34.63-.04,1.25-.09,1.88-.13.89-7.68.28-15.46.4-23.19.11-7.83.02-15.66.02-23.5V.61h33.63v240.42h-27.41c-10.22-39.69-20.49-79.63-30.77-119.56-.38.05-.76.09-1.13.14v119.34h-33.01V.75h31.52c6.19,23.37,12.43,46.98,18.88,70.96Z"/>
    <path class="cls-1" d="m824.73,141.39c6.99,33.29,13.97,66.15,21.04,99.44-1.16.18-2.2.47-3.25.48-9.66.04-19.32-.07-28.98.08-2.79.04-4.23-.78-4.79-3.59-6.64-33.29-13.32-66.57-20.09-99.83-.29-1.43-1.55-2.66-2.36-3.98-.43.18-.86.36-1.29.54v106.43h-34.95V.53c1.61-.07,3.06-.19,4.51-.19,18.82-.01,37.65-.21,56.47.12,5.13.09,10.41,1.25,15.3,2.88,10.6,3.53,14.14,12.51,14.28,22.45.4,27.65.49,55.31-.03,82.95-.22,11.37-4.04,18.24-17.85,23.32.66,2.93,1.33,5.92,2.01,9.33m-18.99-58.56c0-14.3.03-28.61-.03-42.91-.01-2.98-.08-6.35-4.22-6.52-5.43-.22-10.87-.05-16.44-.05v68.98c5.26,0,10.22.04,15.18-.01,3.57-.04,5.45-1.95,5.49-5.51.05-4.32.02-8.65.02-13.97Z"/>
    <path class="cls-1" d="m552.74,162.33c0-44.99-.07-89.48.06-133.97.03-8.44,2.55-16.27,9.36-21.86,5.85-4.79,13.19-5.76,20.35-6.06,10.48-.44,21.01-.53,31.48.02,7.97.42,16.46,1.15,22.01,7.9,3,3.64,5.04,8.36,6.47,12.92,1.2,3.84,1.22,8.14,1.22,12.24.07,57.99.12,115.97-.08,173.96-.02,5.45-1.48,10.97-2.78,16.34-2.38,9.88-9.88,15.47-19,16.18-15.26,1.18-30.77,1.35-46.02.06-15.02-1.27-22.36-12.26-22.93-26.74-.66-16.8-.15-33.65-.16-50.98m36.64-128.04c-.55,2.52-1.56,5.03-1.57,7.55-.09,51.62-.07,103.23-.07,154.85,0,12.18.62,12.78,12.91,12.64,6.26-.07,7.09-.91,7.09-7.25,0-53.78,0-107.56,0-161.35,0-1,.39-2.29-.09-2.94-1.19-1.64-2.66-4.07-4.23-4.25-4.42-.49-8.94,0-14.05.74Z"/>
    <path class="cls-1" d="m701.74,241.33c-9.76-.33-19.07-.17-28.26-1.12-11.13-1.16-19.17-9.5-20.69-20.47-.61-4.39-1-8.85-1-13.28-.06-66.47-.04-132.95-.04-199.42V.71h35v5.85c0,64.31,0,128.61.01,192.92,0,3.39-.88,7.93,3.47,8.77,4.65.9,9.69.49,14.42-.25,1.01-.16,2.01-4.19,2.01-6.43.12-47.31.09-94.63.09-141.94V.75h35.76c.08,1.49.23,3.09.23,4.7.01,67.31.13,134.61-.14,201.92-.03,8.01-.5,16.32-5.6,23.51-3.91,5.51-9.28,8.37-15.48,9.31-6.33.96-12.84.81-19.77,1.15Z"/>
    <path class="cls-1" d="m1043.04,215.92c1.09,8.54,1.98,16.66,2.94,25.39-10.89,0-21.17.09-31.45-.15-.95-.02-2.58-2.02-2.68-3.2-1.11-13.3-1.99-26.61-2.96-40.26h-26.69c-1.47,14.46-2.93,28.91-4.41,43.44h-32.84c9.34-79.84,18.64-159.45,28-239.43h46.78c1,9.5,1.93,19.09,3.02,28.66,1.57,13.69,3.34,27.35,4.88,41.04,1.15,10.29,1.99,20.62,3.13,30.91,1.17,10.59,2.6,21.16,3.81,31.75.82,7.19,1.38,14.4,2.18,21.6,1.25,11.25,2.71,22.48,3.87,33.74.9,8.68,1.49,17.4,2.41,26.51m-39.32-69.81c-.34-3.76-.68-7.53-1.03-11.29-1.32-14.22-2.67-28.44-3.94-42.67-.75-8.35-1.31-16.72-2.11-25.07-.09-1-1.09-1.92-2.42-4.14-3.24,35.04-6.33,68.45-9.44,102.07h20.08c-.39-6.22-.76-12.1-1.15-18.92Z"/>
    <path class="cls-1" d="m393.01,116.11c6.65,7.97,13.13,15.61,19.39,23.43,3.93,4.91,5.35,10.76,5.34,17-.02,18.32.15,36.65-.08,54.97-.1,8.19-2.27,15.85-8.45,21.87-5.76,5.6-12.97,7.6-20.61,7.86-10.15.35-20.32.24-30.48.05-19.58-.36-29.61-8.99-31.16-27.97-1.09-13.37-.21-26.91-.21-40.68h34.59c.12,1.07.37,2.33.37,3.58.04,8-.05,15.99.07,23.99.03,1.93.17,4.1,1.06,5.72,3.3,6,9.15,2.8,13.89,3.25,3.3.32,5.89-2.1,5.87-5.41-.08-12.75-.01-25.55-1.17-38.23-.37-4.06-3.86-8.21-6.76-11.59-10.4-12.16-21.39-23.81-31.69-36.05-5.32-6.32-9.98-13.26-14.31-20.31-1.59-2.59-1.84-6.29-1.86-9.49-.16-19.16-.33-38.32.02-57.47.19-10.32,2.73-20.34,12.85-25.43,5.38-2.71,11.74-4.23,17.77-4.68,10.11-.75,20.34-.66,30.46-.08,10.08.58,20.33,2.17,25.67,12.44,2.12,4.09,3.79,8.89,3.95,13.43.5,14.44.18,28.91.18,43.68h-34.99c0-4.1,0-8.35,0-12.59,0-5.66.08-11.33-.03-16.99-.1-5.11-2.19-7.06-7.28-7.1-2.17-.02-4.33-.02-6.5,0-5.01.04-7.13,2.05-7.17,7.21-.08,10.49-.12,20.99.01,31.48.07,5.72,1.89,11.04,5.63,15.35,8.32,9.61,16.88,18.99,25.61,28.72Z"/>
    <path class="cls-1" d="m127.74,24.33V.64h75c0,7.46.05,15.04-.01,22.62-.1,11.58,1.53,9.97-10.07,10.06-9.79.07-19.58.01-29.64.01v68.83h30.42v31.96h-30.38v74.95h39.33v31.99h-74.65V24.33Z"/>
    <path class="cls-1" d="m544.23.85c.39,5.84.5,11.33.5,16.83.01,63.49.12,126.98-.12,190.47-.03,8.95-1.04,17.99-8.12,25.05-5.91,5.89-13.23,7.76-20.98,8.04-10.98.4-22.01.44-32.99.02-15.83-.61-27.93-7.88-28.68-25.85-.59-14.06-.12-28.17-.12-42.67h35.01c0,9.39,0,18.83,0,28.26,0,6.66,1.69,8.3,8.57,8.34,1.17,0,2.33.01,3.5,0,6.06-.08,7.92-1.95,7.92-7.99,0-64.82,0-129.64,0-194.47V.51c11.97,0,23.57,0,35.49.34Z"/>
    <path class="cls-1" d="m1095.76,209.33h26.68v31.59h-73.35V.64h34.38v208.69h12.29Z"/>
    <path class="cls-1" d="m325.73,14.2c-2.32,12.09-5.09,23.67-6.73,35.42-.74,5.3-2.92,6.29-7.32,5.72-1.12-.14-2.26-.13-3.66-.2V.62h19.93c-.77,4.59-1.5,8.87-2.23,13.59Z"/>
  </g>
</svg>