<svg width="801" height="320" viewBox="0 0 801 320" fill="none" xmlns="http://www.w3.org/2000/svg">
<path d="M0.119354 41.9815C0.122718 28.24 0.122719 14.4868 0.122719 0.0790007C2.77309 0.0790007 4.7107 0.0798164 6.64832 0.0788824C41.4071 0.0620864 76.1661 0.107764 110.925 0.0010321C127.694 -0.0504619 144.042 1.80811 159.808 9.35587C160.281 9.41286 160.464 9.40194 160.637 9.70075C164.5 12.4391 168.191 14.8787 171.937 17.2684C171.994 17.2184 171.846 17.2492 171.921 17.504C172.292 17.9306 172.589 18.1024 172.851 18.2456C172.817 18.2171 172.823 18.3057 172.907 18.6278C175.343 21.6639 177.694 24.3778 180.067 27.0632C180.087 27.0347 180.028 27.0723 180.088 27.4136C181.738 30.2882 183.328 32.8216 184.94 35.5381C184.963 35.7213 185.177 36.0221 185.184 36.3746C186.094 38.5868 186.997 40.4464 187.946 42.6818C189.388 48.0519 190.784 53.0462 192.116 58.4641C192.918 65.0801 193.787 71.2726 194.763 78.2382C197.053 76.1658 198.611 74.7557 200.463 73.2629C201.204 72.7993 201.65 72.4185 202.388 71.9982C202.843 71.8472 203.005 71.7357 203.368 71.644C203.838 71.524 203.972 71.3024 204.017 71.0127C204.064 71.0262 204.062 70.9285 204.324 70.8876C204.821 70.5955 205.056 70.3442 205.514 70.063C205.737 70.0331 206.085 69.7463 206.421 69.7463C208.527 68.8272 210.299 67.9082 212.373 67.0102C213.165 66.7166 213.653 66.4019 214.12 66.059C214.099 66.0308 214.119 66.0969 214.488 66.1092C216.611 65.4377 218.366 64.7538 220.519 64.0441C228.747 62.9863 236.559 61.3516 244.413 61.1089C250.94 60.9072 257.516 62.3428 264.214 63.1474C264.358 63.2418 264.702 63.2361 264.951 63.4963C269.442 65.6008 273.684 67.4451 277.925 69.2043C277.926 69.1193 277.862 69.277 277.969 69.559C278.758 70.2161 279.441 70.5911 280.274 71.1913C280.899 71.6634 281.373 71.9104 281.949 72.4567C282.729 73.1845 283.407 73.613 284.087 74.0378C284.089 74.0339 284.082 74.0388 284.166 74.2692C284.463 74.7932 284.75 74.9192 285.238 75.0069C285.366 75.1364 285.709 75.2601 285.831 75.5042C286.265 75.9202 286.576 76.0921 286.963 76.1559C287.039 76.0479 286.862 76.2435 286.945 76.5019C287.317 76.9661 287.607 77.1719 288.022 77.6111C288.671 78.3106 289.195 78.7767 289.838 79.5047C290.267 79.9819 290.577 80.1971 290.942 80.583C290.998 80.7537 291.246 81.0127 291.261 81.2625C291.546 81.6873 291.816 81.8623 292.088 82.0357C292.089 82.0339 292.086 82.0375 292.119 82.3557C292.755 83.2527 293.358 83.8315 293.996 84.6687C294.363 85.303 294.696 85.6788 295.102 86.3081C295.451 86.7669 295.726 86.9724 296 87.1336C296.001 87.0895 295.917 87.1185 295.945 87.4503C296.611 88.6021 297.25 89.4222 297.928 90.2195C297.967 90.1969 297.894 90.1436 297.95 90.4518C298.298 91.0487 298.589 91.3373 298.837 91.8721C298.845 92.4564 298.98 92.7574 299.216 93.2764C299.482 93.7553 299.728 93.9791 299.999 94.4173C300.025 94.6317 300.218 95.0178 300.215 95.2856C300.453 95.8031 300.692 96.0526 300.971 96.4947C301.009 96.6871 301.22 97.0184 301.218 97.2856C301.449 97.8115 301.681 98.0702 301.933 98.516C301.953 98.7031 302.15 99.0238 302.126 99.3688C302.723 100.913 303.344 102.112 303.96 103.503C303.954 103.695 304.12 104.043 304.135 104.35C304.395 104.974 304.64 105.291 304.812 105.698C304.74 105.788 304.842 105.996 304.86 106.383C305.344 108.169 305.811 109.566 306.264 111.32C306.4 112.125 306.55 112.573 306.619 113.386C307.319 116.961 308.098 120.17 308.878 123.38C309.197 123.35 309.517 123.319 309.837 123.289C310.252 120.877 310.667 118.464 311.095 116.043C311.107 116.034 311.098 116.005 311.322 115.77C311.707 114.708 311.87 113.88 312.117 112.868C312.202 112.684 312.196 112.278 312.448 112.023C313.87 108.534 315.04 105.299 316.447 101.883C316.796 101.139 316.908 100.577 317.137 99.7C318.228 97.6552 319.203 95.9251 320.469 94.0196C324.192 89.2364 327.622 84.6286 331.351 79.8938C333.141 78.2185 334.634 76.6702 336.395 75.0545C336.912 74.7219 337.16 74.4567 337.674 74.1293C338.315 73.6895 338.689 73.3118 339.31 72.8911C339.737 72.5784 339.915 72.3088 340.092 72.0366C340.089 72.0339 340.095 72.0387 340.439 71.9988C343.245 70.3462 345.705 68.7335 348.532 67.0648C359.454 62.2457 370.472 59.6681 382.422 60.1986C390.213 62.5103 397.951 63.9656 405.074 66.9099C411.112 69.4059 416.438 73.6229 422.139 77.3247C422.485 77.726 422.771 77.8809 423.139 78.2809C423.512 78.6961 423.802 78.8662 424.09 79.035C424.09 79.035 424.087 79.0314 424.163 79.2799C424.519 79.714 424.799 79.8996 425.084 80.0592C425.09 80.0333 425.042 80.0557 425.16 80.3735C428.941 86.1316 432.604 91.5719 436.241 97.3109C436.587 98.1997 436.959 98.7898 438.002 100.445C437.816 98.4409 437.748 97.7093 437.784 96.5252C437.815 90.7493 437.742 85.4259 437.797 79.645C438.013 74.1549 438.101 69.1223 438.506 64.0743C439.235 63.9808 439.647 63.9026 440.522 63.9297C459.764 64.0565 478.549 64.2526 497.326 63.9791C502.125 63.9092 503.351 65.4993 503.08 69.9363C502.755 75.2637 503.003 80.6263 503.003 85.9736C507.207 77.5501 512.565 70.5766 520.551 65.3352C523.625 64.109 526.34 62.9844 529.326 61.8853C529.854 61.6699 530.112 61.4292 530.555 61.1885C530.74 61.1885 531.089 61.0654 531.524 61.0862C538.375 59.7219 544.716 59.8037 550.875 62.2836C553.915 63.508 556.877 64.9269 559.97 66.2319C560.065 66.2059 559.868 66.2164 559.958 66.5123C560.73 67.1991 561.413 67.59 562.22 68.0926C562.345 68.2042 562.672 68.2793 562.806 68.5207C563.261 68.9286 563.58 69.095 563.952 69.1499C564.005 69.0385 563.869 69.2443 563.959 69.4906C564.351 69.8938 564.653 70.0506 565.009 70.1387C565.064 70.07 564.925 70.1774 565.025 70.4221C565.434 70.8186 565.742 70.9703 566.22 71.393C567.934 73.1304 569.479 74.597 571.093 76.3152C571.437 76.7667 571.711 76.9666 572.023 77.1178C572.061 77.069 571.951 77.1254 572.004 77.4014C572.333 77.9196 572.609 78.1617 572.971 78.5884C573.22 79.0044 573.436 79.1636 573.811 79.4987C574.209 79.9381 574.5 80.1294 574.788 80.3425C574.784 80.3644 574.759 80.4018 574.809 80.7322C576.545 83.4361 578.232 85.8097 579.986 88.1227C580.055 88.0621 579.894 88.1492 579.903 88.4526C580.257 89.2246 580.602 89.6933 581.003 90.1066C581.06 90.0512 580.923 90.1298 580.943 90.4314C581.321 91.1954 581.679 91.6577 582.072 92.3995C582.405 93.1417 582.703 93.6044 583.006 94.3692C583.356 95.1416 583.7 95.6119 584.069 96.0629C584.093 96.0435 584.033 96.0595 584.028 96.4007C584.68 97.8707 585.338 98.9995 586.006 100.127C586.016 100.125 585.979 100.138 585.976 100.524C589.623 113.521 593.273 126.132 597.071 139.256C597.071 110.059 597.079 81.3392 597.033 52.6194C597.032 51.7099 596.476 50.8012 596.159 49.5249C593.419 40.4301 587.13 36.1375 576.906 36.0186C576.465 35.5843 576.242 35.3085 576.093 34.5693C576.169 23.2096 576.169 12.3134 576.169 1.14064C601.901 1.14064 626.947 1.14064 652.023 1.12471C652.053 1.10879 652.004 1.06199 652.006 1.52863C652.007 45.2434 652.007 88.4916 652.007 131.74C652.262 131.69 652.517 131.64 652.772 131.591C656.856 120.399 660.94 109.207 665.269 97.848C665.696 97.1285 665.878 96.5764 666.344 95.8571C667.453 94.1407 668.278 92.5914 669.096 91.038C669.089 91.0339 669.099 91.0469 669.382 90.9074C670.154 89.8656 670.644 88.9633 671.112 88.0466C671.091 88.0322 671.119 88.075 671.419 87.9484C672.544 86.5739 673.369 85.326 674.417 84.0002C674.918 83.7364 675.085 83.4787 675.432 83.0177C675.9 82.2929 676.079 81.6995 676.21 81.1067C676.163 81.1073 676.215 81.1861 676.493 81.1478C677.14 80.7486 677.508 80.3877 678.011 79.9083C678.147 79.7898 678.175 79.4305 678.456 79.28C678.989 78.7914 679.241 78.4534 679.673 78.0952C679.853 78.075 680.085 77.7961 680.365 77.7488C681.139 77.1546 681.633 76.6077 682.11 76.0461C682.092 76.0312 682.108 76.0734 682.367 76.0145C682.813 75.6655 682.999 75.3753 683.146 75.0671C683.107 75.0491 683.138 75.1297 683.401 75.0568C683.849 74.6824 684.034 74.3808 684.492 73.9786C685.214 73.5095 685.663 73.141 686.341 72.7692C686.863 72.6043 687.024 72.3567 687.299 71.9615C687.734 71.6343 687.925 71.3688 688.46 71.052C690.895 69.6765 692.986 68.3524 695.083 67.0316C695.089 67.0348 695.085 67.0232 695.434 66.9983C697.196 66.259 698.609 65.5446 700.401 64.8187C706.72 63.4903 712.602 61.5985 718.615 60.9704C733.271 59.4397 747.183 62.454 760.481 69.5858C767.515 75.9059 774.305 81.9625 781.096 88.0191C781.096 88.0191 781.089 88.0339 781.152 88.3636C782.502 90.4804 783.789 92.2675 785.075 94.0546C785.075 94.0546 785.089 94.0339 785.103 94.3382C785.485 95.0893 785.852 95.5362 786.219 95.983C786.378 96.5304 786.536 97.0779 786.93 98.0949C787.414 98.8194 787.662 99.0743 787.91 99.3292C787.91 99.3292 787.967 99.6943 788.063 100.104C788.38 100.753 788.601 100.991 788.821 101.23C788.821 101.23 788.79 101.292 788.776 101.326C791.573 110.885 795.097 120.268 797.025 129.969C799.845 144.16 800.966 158.604 799.099 173.564C799.085 174.023 799.069 174.003 798.602 173.997C769.563 174.003 740.989 174.166 712.419 173.893C707.137 173.842 705.681 175.501 706.259 180.382C706.825 185.153 706.649 190.026 707.402 194.758C708.038 198.759 709.536 202.623 710.68 206.808C710.85 207.388 710.992 207.707 711.138 208.306C711.384 208.856 711.624 209.128 711.888 209.573C711.911 209.745 712.111 210.03 712.128 210.308C712.39 210.851 712.637 211.116 712.929 211.559C712.975 211.737 713.214 212.015 713.243 212.266C713.535 212.708 713.798 212.9 714.133 213.311C714.347 213.818 714.566 214.026 714.951 214.417C715.34 214.894 715.639 215.105 716.031 215.515C716.302 215.962 716.54 216.125 717.025 216.506C723.89 221.297 729.671 221.089 734.261 216.166C734.201 216.137 734.267 216.254 734.526 216.183C734.963 215.815 735.141 215.518 735.238 215.168C735.156 215.116 735.281 215.264 735.538 215.186C735.966 214.808 736.138 214.507 736.24 214.163C736.169 214.12 736.266 214.254 736.525 214.177C736.957 213.798 737.13 213.495 737.25 213.22C737.198 213.246 737.315 213.258 737.623 213.144C738.388 212.057 738.844 211.084 739.562 209.879C740.755 207.167 742.189 204.749 742.503 202.194C742.973 198.36 744.989 197.924 748.248 197.947C764.54 198.06 780.834 197.966 797.127 197.945C797.127 197.945 797.189 198.052 797.244 198.021C795.9 205.078 794.501 212.166 793.092 219.646C793.081 220.038 792.884 220.274 792.664 220.665C791.03 224.048 789.616 227.04 788.202 230.031C788.202 230.031 787.956 230.258 787.704 230.6C787.304 231.294 787.155 231.646 787.005 231.998C787.005 231.998 787.085 232.015 786.762 232.144C784.628 234.837 782.817 237.401 781.006 239.965C781.006 239.965 781.062 240.041 780.795 240.076C780.377 240.415 780.224 240.719 780.072 241.024C780.072 241.024 780.089 241.034 779.842 241.106C779.444 241.467 779.293 241.756 779.143 242.045C778.854 242.211 778.603 242.422 777.998 242.933C777.422 243.466 777.238 243.746 776.831 244.11C776.329 244.379 776.149 244.634 775.814 245.036C775.37 245.402 775.181 245.691 775.038 245.986C775.084 245.992 775.015 245.931 774.677 245.995C770.511 248.649 766.859 251.56 762.824 253.775C744.835 263.647 725.765 264.915 705.751 260.255C705.002 260.074 704.56 260.026 703.893 259.714C701.194 258.582 698.719 257.714 696.037 256.586C693.609 255.198 691.388 254.071 689.001 252.685C687.958 251.922 687.081 251.418 686.032 250.633C683.964 248.866 682.068 247.382 680.042 245.627C679.039 244.549 678.165 243.739 677.203 242.668C676.828 242.18 676.542 241.954 676.212 241.545C676.167 241.36 675.941 241.056 675.916 240.806C675.621 240.388 675.35 240.22 675.084 240.044C675.089 240.036 675.072 240.046 674.963 239.719C671.623 233.004 668.392 226.616 665.05 220.007C665.05 232.712 665.05 245.274 664.822 258.011C664.315 258.45 664.035 258.713 663.313 258.902C637.662 258.881 612.455 258.934 587.061 258.824C586.593 258.447 586.28 258.381 585.899 257.969C585.732 251.689 585.602 245.903 585.627 239.668C585.782 232.399 585.782 225.578 585.782 218.757C581.721 232.097 576.798 244.585 566.692 254.715C565.996 255.238 565.58 255.649 564.924 256.129C564.371 256.359 564.161 256.607 563.733 257.013C562.782 257.666 562.151 258.25 561.397 258.792C561.275 258.751 561.076 258.915 560.817 258.969C560.294 259.25 560.03 259.476 559.393 259.773C552.37 261.234 545.718 262.624 538.72 263.999C537.914 264.011 537.453 264.037 536.823 263.766C535.84 262.995 535.083 262.337 534.207 262.078C525.839 259.596 518.676 255.125 513.036 248.531C509.834 244.788 507.292 240.481 504.408 236.364C504.408 242.398 504.111 248.246 504.503 254.047C504.811 258.616 505.968 263.127 506.735 267.739C506.722 267.815 506.84 267.912 506.844 268.29C507.584 270.143 508.319 271.617 509.069 273.063C509.084 273.033 509.027 273.066 509.079 273.376C509.789 274.458 510.447 275.23 511.096 276.018C511.087 276.035 511.121 276.02 511.19 276.342C512.536 277.79 513.813 278.916 515.089 280.037C515.089 280.033 515.081 280.034 515.237 280.335C517.606 281.708 519.82 282.781 522.277 283.95C522.694 284.045 522.868 284.044 523.138 284.227C523.235 284.411 523.562 284.664 523.562 284.664C523.562 284.664 523.975 284.653 524.262 284.993C524.644 296.864 524.74 308.396 524.835 319.927C524.835 319.927 524.418 319.958 523.773 319.997C492.794 319.995 462.46 319.955 432.126 319.915C432.126 319.915 432.125 319.997 432.127 319.517C432.04 312.696 431.951 306.356 431.944 299.556C432.026 294.502 432.026 289.907 432.026 285.518C445.704 281.248 451.347 274.77 451.32 263.953C451.794 263.61 451.972 263.349 452.061 263.027C452.08 263.041 452.065 262.997 452.404 262.747C452.831 242.588 452.925 222.678 452.999 202.769C453.004 201.233 452.873 199.696 452.805 198.16C452.568 198.146 452.331 198.133 452.094 198.119C450.014 205.356 447.934 212.592 445.855 219.877C445.855 219.925 445.911 219.846 445.681 219.963C445.352 220.399 445.252 220.718 444.966 221.282C444.508 222.292 444.238 223.057 443.725 224.02C443.275 224.795 443.067 225.373 442.659 226.124C442.294 226.791 442.129 227.285 441.741 227.928C441.402 228.403 441.285 228.73 440.92 229.284C438.471 233.014 436.27 236.518 434.079 240.028C434.089 240.035 434.08 240.013 433.835 240.089C433.435 240.459 433.282 240.753 433.109 241.04C433.09 241.033 433.109 241.068 432.799 241.186C430.033 243.886 427.577 246.469 425.106 249.042C425.091 249.032 425.1 249.066 424.842 249.113C424.398 249.441 424.212 249.723 424.059 250.016C424.091 250.028 424.05 249.973 423.739 250.026C422.66 250.764 421.893 251.448 420.863 252.167C420.474 252.324 420.347 252.447 419.893 252.619C414.251 255.356 408.936 258.043 403.354 260.73C402.757 260.851 402.425 260.972 401.677 261.056C389.62 263.992 377.825 263.629 365.702 262.513C364.966 262.35 364.53 262.323 363.857 262.169C363.442 262.054 363.263 262.067 362.748 261.925C360.954 261.489 359.497 261.208 357.931 260.852C357.821 260.775 357.611 260.94 357.346 260.662C355.429 259.973 353.776 259.561 351.883 259.005C351.195 258.533 350.749 258.206 350.276 257.886C350.248 257.892 350.235 257.944 350.121 257.716C349.689 257.399 349.372 257.311 349.021 257.144C348.988 257.065 348.83 257.132 348.688 256.912C348.073 256.524 347.601 256.355 346.964 256.066C346.799 255.946 346.392 255.94 346.24 255.725C345.767 255.398 345.446 255.286 344.921 254.964C344.201 254.505 343.684 254.254 343.001 253.747C342.277 253.272 341.719 253.055 341.145 252.878C341.128 252.918 341.215 252.923 341.122 252.677C340.714 252.3 340.4 252.169 340.087 252.036C340.089 252.034 340.087 252.039 339.938 251.773C339.243 251.285 338.697 251.063 338.164 250.899C338.178 250.958 338.283 250.899 338.198 250.603C337.44 249.876 336.767 249.446 336.091 249.026C336.088 249.035 336.108 249.032 336.027 248.788C335.656 248.385 335.367 248.226 335.083 248.048C335.088 248.03 335.054 248.047 334.97 247.822C334.692 247.305 334.42 247.158 333.971 246.892C333.561 246.44 333.249 246.25 332.884 245.841C332.651 245.343 332.395 245.206 331.963 244.943C331.555 244.47 331.246 244.265 330.883 243.837C330.658 243.326 330.403 243.178 329.983 242.909C329.602 242.449 329.304 242.25 328.947 241.815C328.697 241.282 328.428 241.115 328.018 240.831C327.694 240.394 327.43 240.203 327.091 239.748C326.741 239.252 326.466 239.02 326.154 238.561C326.116 238.333 325.816 237.984 325.797 237.769C325.616 237.281 325.376 237.142 325.062 237.098C325.066 237.057 324.985 237.064 324.919 236.83C324.677 236.303 324.425 236.111 324.092 236.026C324.088 236.034 324.103 236.029 324.05 235.742C323.734 235.177 323.47 234.899 323.17 234.444C323.134 234.266 322.851 234.04 322.767 233.74C321.821 232.297 320.96 231.154 320.092 230.022C320.087 230.034 320.112 230.032 320.054 229.766C319.717 229.293 319.439 229.086 319.152 228.944C319.144 229.01 319.273 228.978 319.255 228.669C318.874 227.886 318.511 227.412 318.128 226.977C318.109 227.016 318.195 227.015 318.179 226.654C317.106 224.296 316.049 222.299 315.036 220.227C315.08 220.151 314.912 220.101 314.909 219.728C312.866 213.811 310.827 208.268 308.581 202.166C305.904 210.873 303.426 218.933 301 227.001C301.052 227.009 301.029 226.906 300.807 226.997C300.333 227.336 300.251 227.631 300.214 228.193C300.08 228.58 300.068 228.747 299.789 229.088C299.075 230.187 298.629 231.113 298.083 232.204C297.983 232.37 298.004 232.757 297.777 232.901C297.422 233.369 297.293 233.692 297.051 234.122C296.937 234.229 296.961 234.54 296.714 234.721C296.326 235.274 296.185 235.647 296.068 236.024C296.093 236.028 296.061 235.989 295.804 236.154C295.274 236.861 295.002 237.403 294.538 238.051C294.128 238.38 294.033 238.648 293.833 239.073C293.486 239.49 293.365 239.794 293.19 240.102C293.135 240.105 293.166 240.211 292.884 240.331C292.07 241.305 291.539 242.16 290.732 243.128C290.009 243.872 289.559 244.504 288.882 245.196C288.357 245.441 288.215 245.708 287.928 246.172C286.789 247.224 285.947 248.162 284.855 249.15C284.425 249.478 284.246 249.755 284.079 250.034C284.092 250.036 284.083 250.013 283.769 250.081C282.342 251.117 281.229 252.084 280.103 253.042C280.09 253.033 280.105 253.06 279.784 253.11C278.818 253.722 278.174 254.284 277.4 254.826C277.27 254.805 277.097 255.004 276.813 255.061C276.261 255.388 275.992 255.658 275.537 255.933C275.35 255.937 275.059 256.171 274.79 256.193C274.262 256.452 274.002 256.69 273.551 256.933C273.36 256.937 273.06 257.172 272.795 257.194C272.279 257.456 272.028 257.697 271.579 257.944C271.381 257.95 271.064 258.188 270.734 258.138C269.985 258.203 269.566 258.316 268.816 258.544C265.359 259.817 262.233 260.977 258.777 262.128C258.024 262.228 257.601 262.337 256.759 262.341C247.759 262.337 239.145 262.956 230.606 262.411C219.413 261.697 209.857 255.99 200.119 250.587C199.786 250.159 199.521 250.021 199.098 249.74C198.681 249.368 198.374 249.232 197.867 248.832C194.458 245.73 191.249 242.892 187.931 239.736C185.294 236.203 182.766 232.989 180.2 229.572C180.163 229.37 179.909 229.046 179.891 228.695C178.329 225.519 176.785 222.694 175.259 219.929C175.277 219.99 175.298 219.866 175.273 219.478C174.154 215.437 172.942 211.814 171.986 208.125C167.305 190.061 167.877 171.62 168.415 152.887C168.742 150.408 168.822 148.245 169.051 145.684C169.284 143.886 169.368 142.484 169.611 140.847C169.553 139.941 169.335 139.271 169.117 138.6C168.347 139.368 167.576 140.136 166.523 141.044C164.854 142.46 163.468 143.736 161.825 145.07C161.363 145.402 161.157 145.675 160.996 145.964C161.041 145.979 161.009 145.89 160.742 145.951C160.276 146.303 160.077 146.594 159.946 146.885C160.013 146.886 159.899 146.815 159.665 146.867C159.432 146.919 159.054 147.215 158.819 147.25C158.28 147.439 158.089 147.683 157.76 148.066C157.37 148.221 157.233 148.324 156.767 148.476C154.118 149.956 151.797 151.388 149.407 152.783C149.339 152.747 149.185 152.747 148.765 152.756C137.362 154.175 126.406 155.907 115.383 156.893C107.002 157.642 98.536 157.444 89.8961 157.703C89.7706 158.294 89.8567 158.85 89.8702 159.847C89.8549 166.772 89.9122 173.257 89.7577 180.116C89.6859 185.067 89.8258 189.643 89.9097 194.619C89.9458 196.356 90.038 197.693 90.0856 199.287C90.108 199.704 90.175 199.864 90.2144 200.411C91.3585 206.804 93.5224 212.062 100.112 214.004C100.099 214.036 100.153 213.992 100.346 214.299C102.721 215.065 104.903 215.525 107.446 216.047C108.537 216.098 109.268 216.086 110.136 216.281C110.491 216.755 110.77 216.924 111.099 217.005C111.09 217.018 111.123 217.026 111.048 217.49C110.963 230.089 110.897 242.223 110.982 254.357C111.003 257.302 110.491 258.981 106.941 258.968C71.371 258.833 35.8008 258.824 0.230738 258.78C0.230738 258.78 0.197696 258.394 0.181652 257.752C0.110406 244.08 0.055204 231.05 0 218.021C0 218.021 0.136064 217.633 0.585495 217.385C5.41179 215.789 9.78867 214.44 14.1264 213.071C14.0872 213.05 14.1432 213.119 14.4768 213.058C16.2545 211.019 17.6987 209.041 19.1173 207.048C19.0917 207.033 19.1233 207.084 19.4106 206.858C20.4655 203.095 21.8483 199.566 21.8982 196.018C22.163 177.189 22.1305 158.355 22.13 139.523C22.1294 114.357 22.2031 89.1903 21.9649 64.0265C21.8523 52.1331 15.0995 44.7864 3.50593 42.8913C2.36508 42.7048 1.26317 42.2801 0.143188 41.9659C0.143188 41.9659 0.115991 41.9697 0.119354 41.9815ZM533.099 109.018C533.099 109.018 533.189 108.969 533.065 108.451C532.774 108.264 532.484 108.078 532.145 107.999C532.145 107.999 532.242 107.932 532.103 107.322C531.461 106.848 530.818 106.374 530.109 105.998C530.109 105.998 530.212 105.938 530.023 105.441C529.713 105.303 529.403 105.164 528.846 104.82C528.846 104.82 528.526 104.801 528.192 104.317C527.826 104.216 527.46 104.116 526.737 103.857C526.737 103.857 526.347 103.878 525.7 103.343C517.099 102.116 511.76 104.703 509.054 112.738C507.421 117.588 507.36 122.968 506.397 128.999C506.467 132.642 506.537 136.285 506.303 140.84C506.404 147.273 506.505 153.707 506.398 161.039C506.467 167.335 506.537 173.632 506.302 180.84C506.877 188.604 507.451 196.368 508.003 204.907C509.187 210.265 510.855 215.317 516.616 218.523C517.436 218.687 518.256 218.85 519.571 219.188C519.741 219.148 519.911 219.108 520.657 219.479C522.729 219.187 525.061 219.409 526.827 218.514C534.284 214.734 537.156 207.93 538.621 199.563C538.853 198.208 539.085 196.853 539.838 194.908C539.894 193.624 539.951 192.339 540.192 190.64C540.192 190.64 540.195 190.187 540.719 189.575C541.099 173.673 541.997 157.759 541.639 141.874C541.463 134.083 538.956 126.345 537.49 117.858C536.313 115.251 535.136 112.643 533.932 109.531C533.675 109.333 533.418 109.135 533.099 109.018ZM252.127 109.017C252.127 109.017 252.26 108.902 252.143 108.387C251.861 108.195 251.579 108.004 251.128 108.045C251.128 108.045 251.312 107.823 251.144 107.327C250.851 107.161 250.557 106.994 250.097 107.002C250.097 107.002 250.282 106.847 250.066 106.366C249.747 106.243 249.429 106.12 249.093 106.036C249.093 106.036 249.123 106.004 248.807 105.472C248.244 105.26 247.682 105.049 246.866 104.665C246.866 104.665 246.561 104.694 246.119 104.217C244.762 104.104 243.405 103.99 241.394 103.786C240.961 103.845 240.528 103.903 239.624 103.608C237.42 104.722 235.216 105.837 232.53 107.109C232.352 107.389 232.175 107.669 231.532 108.141C231.369 108.424 231.206 108.708 230.446 109.316C223.034 118.677 223.143 129.93 222.708 140.981C222.671 141.917 224.687 143.73 225.807 143.778C230.586 143.981 235.387 143.674 241.084 143.754C247.042 143.686 253 143.618 259.73 143.318C258.934 135.727 258.138 128.136 257.478 120.302C257.478 120.302 257.32 120.074 257.439 119.538C257.385 119.363 257.331 119.188 257.299 118.321C256.923 117.515 256.548 116.709 256.128 115.458C256.128 115.458 255.96 115.042 256.021 114.471C255.679 114.04 255.338 113.61 255.036 113.106C255.036 113.106 254.954 113.086 254.948 112.547C254.711 112.289 254.473 112.032 254.123 111.244C253.78 110.84 253.438 110.436 253.015 109.514C252.754 109.301 252.492 109.088 252.127 109.017ZM734.089 108.034C734.089 108.034 734.037 108.058 733.921 107.593C733.721 107.286 733.443 107.168 732.774 106.972C732.774 106.972 732.375 106.876 731.925 106.288C726.287 103.331 720.997 103.434 715.714 108.264C715.515 108.556 715.316 108.849 714.494 109.392C706.73 118.804 706.375 130.114 706.551 141.465C706.564 142.289 709.123 143.686 710.557 143.766C715.858 144.06 721.184 143.921 726.5 143.93C732.247 143.939 737.993 143.932 743.988 143.932C744.267 133.13 744.431 123.241 739.069 114.15C739.069 114.15 738.948 114.1 738.989 113.461C738.339 112.677 737.69 111.894 737.077 111.041C737.077 111.041 737.005 111.071 736.893 110.587C736.706 110.276 736.431 110.111 735.892 109.615C735.624 109.421 735.357 109.228 734.942 108.545C734.65 108.392 734.358 108.239 734.089 108.034ZM114.104 52.0363C114.104 52.0363 114.153 51.9771 113.826 51.4671C113.259 51.2948 112.692 51.1226 112.125 50.9989C112.125 50.9989 112.165 50.9651 111.694 50.3549C104.521 50.3549 97.3493 50.3549 89.443 50.3549C89.443 51.7085 89.4431 53.4739 89.4429 55.2393C89.4419 69.3535 89.4604 83.4678 89.4337 97.582C89.4106 109.796 89.4018 110.08 101.805 109.468C106.396 109.241 110.904 107.332 115.819 106.144C115.819 106.144 116.109 105.911 116.601 105.839C116.923 105.672 117.105 105.407 117.694 104.829C118.154 104.215 118.614 103.6 119.665 102.663C120.447 100.796 121.229 98.9283 122.32 96.4897C122.256 94.9982 122.193 93.5068 122.82 91.6688C124.977 79.7454 126.052 67.9366 119.087 57.025C119.087 57.025 119.156 56.9994 119.067 56.4406C118.79 56.1991 118.512 55.9575 117.985 55.1957C117.144 54.4155 116.304 53.6354 115.179 52.3524C114.827 52.2223 114.476 52.0923 114.104 52.0363ZM223.509 174.932C224.322 184.037 225.136 193.143 225.938 203.01C226.491 204.718 226.871 206.507 227.628 208.119C230.177 213.55 232.988 218.77 240.683 219.473C244.439 218.261 248.928 217.956 251.787 215.638C256.762 211.606 258.742 205.495 259.296 198.593C259.503 198.327 259.761 198.126 260.993 198.183C276.408 198.183 291.822 198.183 307.803 198.183C306.753 192.329 305.825 187.151 305.024 181.099C305.116 174.057 305.116 174.065 298.108 174.068C290.442 174.071 282.776 174.02 275.11 174.058C258.788 174.137 242.466 174.258 225.476 174.254C225.053 174.384 224.629 174.514 223.509 174.932ZM379.317 104.843C371.242 106.163 368.352 112.314 365.585 119.57C363.959 129.74 362.333 139.909 360.47 150.744C360.5 151.211 360.529 151.678 360.26 153.02C360.824 164.096 361.388 175.171 361.839 187.014C361.997 188.028 362.155 189.041 362.217 190.545C362.217 190.545 362.443 190.99 362.316 191.635C362.544 192.445 362.772 193.255 362.927 194.801C363.279 195.931 363.63 197.061 363.967 198.814C364.075 199.212 364.182 199.61 364.234 200.755C365.966 204.832 367.342 209.112 369.526 212.93C371.763 216.84 374.958 220.038 380.764 220.061C381.215 220.003 381.665 219.944 382.687 219.933C382.979 219.699 383.271 219.466 384.267 219.295C392.14 216.276 394.359 209.345 396.707 201.583C397.809 192.409 398.911 183.235 400.215 173.325C400.236 172.316 400.258 171.307 400.733 169.569C400.822 165.776 401.252 161.954 400.929 158.196C400.23 150.061 399.145 141.958 398.292 133.005C397.186 128.691 396.08 124.376 395.057 119.322C394.006 116.916 393.278 114.293 391.835 112.153C389.073 108.059 385.896 104.255 379.317 104.843Z" fill="#21B0E8"/>
</svg>
